<?xml version="1.0" encoding="utf-8"?>
<!-- Generator: Adobe Illustrator 20.1.0, SVG Export Plug-In . SVG Version: 6.00 Build 0)  -->
<svg version="1.1" xmlns="http://www.w3.org/2000/svg" xmlns:xlink="http://www.w3.org/1999/xlink" x="0px" y="0px"
	 viewBox="0 0 291.3 291.3" style="enable-background:new 0 0 291.3 291.3;" xml:space="preserve">
<style type="text/css">
	.st0{fill:#0E76A8;}
	.st1{fill:#FFFFFF;}
</style>
<g id="Layer_1">
	<g>
		<path class="st0" d="M145.7,0c80.4,0,145.7,65.2,145.7,145.7s-65.2,145.7-145.7,145.7S0,226.1,0,145.7S65.2,0,145.7,0z"/>
	</g>
</g>
<g id="Layer_2">
	<g>
		<path class="st1" d="M245.5,69.6c-3.6-3.6-8-5.5-13.1-5.5H61.5c-5.1,0-9.5,1.8-13.1,5.5c-3.6,3.6-5.5,8-5.5,13.1v126.3
			c0,5.1,1.8,9.5,5.5,13.1c3.6,3.6,8,5.5,13.1,5.5h170.9c5.1,0,9.5-1.8,13.1-5.5c3.6-3.6,5.5-8,5.5-13.1V82.7
			C251,77.6,249.2,73.2,245.5,69.6z M236.1,209.1c0,1-0.4,1.9-1.1,2.6c-0.7,0.7-1.6,1.1-2.6,1.1H61.5c-1,0-1.9-0.4-2.6-1.1
			c-0.7-0.7-1.1-1.6-1.1-2.6v-89.2c2.5,2.8,5.1,5.3,8,7.7c20.7,15.9,37.2,29,49.5,39.2c3.9,3.3,7.2,5.9,9.6,7.8
			c2.5,1.9,5.8,3.7,10,5.6c4.2,1.9,8.2,2.8,11.9,2.8h0.1h0.1c3.7,0,7.7-0.9,11.9-2.8c4.2-1.9,7.6-3.8,10-5.6
			c2.5-1.9,5.7-4.5,9.6-7.8c12.2-10.2,28.7-23.3,49.5-39.2c2.9-2.3,5.5-4.9,8-7.7V209.1L236.1,209.1z M236.1,85.7V87
			c0,4.6-1.8,9.7-5.4,15.3c-3.6,5.6-7.5,10.1-11.7,13.4c-14.9,11.8-30.5,24-46.6,36.8c-0.5,0.4-1.8,1.5-4.1,3.4
			c-2.2,1.9-4,3.4-5.3,4.4c-1.3,1-3,2.2-5.2,3.7c-2.1,1.4-4.1,2.5-5.9,3.2c-1.8,0.7-3.4,1-5,1H147h-0.1c-1.5,0-3.2-0.3-5-1
			c-1.8-0.7-3.7-1.8-5.9-3.2c-2.1-1.4-3.9-2.7-5.2-3.7c-1.3-1-3.1-2.5-5.3-4.4c-2.2-1.9-3.6-3-4.1-3.4c-16.1-12.8-31.6-25-46.6-36.8
			c-11.4-9-17.1-20-17.1-33c0-1,0.4-1.9,1.1-2.6c0.7-0.7,1.6-1.1,2.6-1.1h170.9c0.6,0.3,1.2,0.4,1.6,0.3c0.5-0.2,0.8,0.1,1,0.9
			c0.2,0.7,0.4,1.1,0.6,1c0.2,0,0.3,0.4,0.3,1.5c0,1,0.1,1.5,0.1,1.5L236.1,85.7L236.1,85.7z"/>
	</g>
</g>
</svg>
